<?xml version="1.0" encoding="UTF-8" standalone="no"?>
<svg
   width="16"
   height="16"
   viewBox="0 0 16 16"
   version="1.1"
   xmlns="http://www.w3.org/2000/svg">
  
  <!-- 背景齿轮 -->
  <path
     d="M 8,2 L 9,2.5 L 10,2 L 11,3 L 10.5,4 L 11,5 L 14,5.5 L 14,7 L 11,7.5 L 10.5,8.5 L 11,9.5 L 10,11 L 9,10.5 L 8,11 L 7,10.5 L 6,11 L 5,9.5 L 5.5,8.5 L 5,7.5 L 2,7 L 2,5.5 L 5,5 L 5.5,4 L 5,3 L 6,2 L 7,2.5 Z"
     fill="none"
     stroke="#fc7f7f"
     stroke-width="1.2"
     stroke-linejoin="round"/>
  
  <!-- 中心魔法圆环 -->
  <circle
     cx="8"
     cy="8"
     r="2.5"
     fill="none"
     stroke="#fc7f7f"
     stroke-width="1.2"/>
  
  <!-- 能量点 -->
  <circle
     cx="8"
     cy="8"
     r="1"
     fill="#fc7f7f"/>
  
  <!-- 能量射线 -->
  <path
     d="M 8,4 L 8,5.5 M 8,10.5 L 8,12 M 4,8 L 5.5,8 M 10.5,8 L 12,8"
     stroke="#fc7f7f"
     stroke-width="1"
     stroke-linecap="round"/>
  
  <!-- 装饰性光点 -->
  <circle cx="8" cy="4" r="0.5" fill="#fc7f7f"/>
  <circle cx="8" cy="12" r="0.5" fill="#fc7f7f"/>
  <circle cx="4" cy="8" r="0.5" fill="#fc7f7f"/>
  <circle cx="12" cy="8" r="0.5" fill="#fc7f7f"/>
</svg> 